<?xml version="1.0" encoding="utf-8"?>
<!-- Generator: Adobe Illustrator 22.1.0, SVG Export Plug-In . SVG Version: 6.00 Build 0)  -->
<svg version="1.1" id="Capa_1" xmlns="http://www.w3.org/2000/svg" xmlns:xlink="http://www.w3.org/1999/xlink" x="0px" y="0px"
	 viewBox="0 0 100 100" style="enable-background:new 0 0 100 100;" xml:space="preserve">
<g>
	<g>
		<circle cx="50" cy="24.4" r="20.4"/>
		<path d="M12.2,52.1v4.2c0,0,0.1,0,0.1,0c2.9,0,5.6,1.1,7.7,3.2c2.1,2.1,3.2,4.8,3.2,7.7c0,2.9-1.1,5.6-3.2,7.7
			c-2.1,2.1-4.8,3.2-7.7,3.2c0,0-0.1,0-0.1,0v14.6c0,1.4,1.2,2.5,2.5,2.5c0.2,0,0.3,0,0.5-0.1c3.8-0.8,9.5-1.3,15.9-1.3
			c8.4,0,15.6,0.9,18.9,2.1c3.3-1.2,10.5-2.1,18.9-2.1c6.4,0,12.1,0.5,15.9,1.3c0.2,0,0.3,0.1,0.5,0.1c1.4,0,2.5-1.1,2.5-2.5V78.1
			c-2.9,0-5.6-1.1-7.7-3.2c-2.1-2.1-3.2-4.8-3.2-7.7c0-2.9,1.1-5.6,3.2-7.7c2.1-2.1,4.8-3.2,7.7-3.2v-4.2c0-1.1-0.7-2.1-1.8-2.4
			c-3-0.9-9.5-2.7-17.1-2.7C58.4,47,50,50.3,50,50.3S41.5,47,31.1,47c-7.6,0-14.1,1.7-17.1,2.7C12.9,50.1,12.2,51,12.2,52.1z"/>
		<path d="M10.6,60.2c-0.5,0.1-1,0.3-1.5,0.5C6.7,61.9,5,64.4,5,67.2s1.7,5.4,4.1,6.6c0.5,0.2,1,0.4,1.5,0.5c0.5,0.1,1,0.2,1.5,0.2
			c0,0,0.1,0,0.1,0c4,0,7.3-3.2,7.3-7.3S16.3,60,12.3,60c0,0-0.1,0-0.1,0C11.6,60,11.1,60.1,10.6,60.2z"/>
		<path d="M80.5,67.2c0,4,3.2,7.3,7.3,7.3c0.5,0,1-0.1,1.5-0.2c0.5-0.1,1-0.3,1.5-0.5c2.5-1.1,4.2-3.7,4.2-6.6
			c0-2.9-1.7-5.5-4.2-6.6c-0.5-0.2-1-0.4-1.5-0.5c-0.5-0.1-1-0.2-1.5-0.2C83.7,60,80.5,63.2,80.5,67.2z"/>
	</g>
</g>
</svg>
