<?xml version="1.0" encoding="utf-8"?>
<!-- Generator: Adobe Illustrator 22.1.0, SVG Export Plug-In . SVG Version: 6.00 Build 0)  -->
<svg version="1.1"
	 id="Layer_1" xmlns:cc="http://creativecommons.org/ns#" xmlns:dc="http://purl.org/dc/elements/1.1/" xmlns:inkscape="http://www.inkscape.org/namespaces/inkscape" xmlns:rdf="http://www.w3.org/1999/02/22-rdf-syntax-ns#" xmlns:sodipodi="http://sodipodi.sourceforge.net/DTD/sodipodi-0.dtd" xmlns:svg="http://www.w3.org/2000/svg"
	 xmlns="http://www.w3.org/2000/svg" xmlns:xlink="http://www.w3.org/1999/xlink" x="0px" y="0px" viewBox="0 0 100 100"
	 style="enable-background:new 0 0 100 100;" xml:space="preserve">
<g transform="translate(0,-952.36218)">
	<path d="M10.8,962.4c-0.5,0.1-0.8,0.5-0.8,1v78c0,0.6,0.4,1,1,1h78c0.6,0,1-0.4,1-1v-78c0-0.6-0.4-1-1-1H11
		C10.9,962.4,10.9,962.4,10.8,962.4z M12,964.4h76v76H12V964.4z M49.9,979.3c-0.5,0.1-0.9,0.5-0.9,1v21H28c-0.1,0-0.1,0-0.2,0
		c-0.6,0.1-1,0.5-0.9,1.1s0.5,1,1.1,0.9h21v21c0,0.6,0.4,1,1,1c0.6,0,1-0.4,1-1c0,0,0,0,0,0v-21h21c0.6,0,1-0.4,1-1c0-0.6-0.4-1-1-1
		c0,0,0,0,0,0H51v-21c0-0.6-0.4-1-1-1C50,979.3,49.9,979.3,49.9,979.3z"/>
</g>
</svg>
